<svg width="96" height="47" viewBox="0 0 96 47" fill="none" xmlns="http://www.w3.org/2000/svg">
<path d="M14.2744 13.6081L14.2745 13.608C15.0185 12.8812 16.2067 12.8817 16.9504 13.6084L14.2744 13.6081ZM14.2744 13.6081C12.0551 15.7769 10.8299 18.6675 10.8299 21.7437C10.8299 22.3828 10.8832 23.014 10.9876 23.6325C11.1559 24.6304 10.5961 25.7014 9.679 26.1427C5.85385 27.9834 3.39266 31.9667 3.5036 36.5729L3.50361 36.573M14.2744 13.6081L3.50361 36.573M3.50361 36.573L3.5045 36.6096C3.52964 37.6401 4.35837 38.4699 5.38886 38.4965L5.39027 38.4965M3.50361 36.573L5.39027 38.4965M5.39027 38.4965C5.48548 38.4987 5.5812 38.5 5.67759 38.5C8.3338 38.5 10.7809 37.5774 12.6958 35.9954C13.2945 35.5007 14.3935 35.2126 15.5769 35.2185C16.7601 35.2245 17.8587 35.5235 18.4556 36.0226C20.3277 37.5877 22.7205 38.5 25.3225 38.5C25.4188 38.5 25.5146 38.4987 25.6098 38.4965L25.6112 38.4965M5.39027 38.4965L25.6112 38.4965M25.6112 38.4965C26.6417 38.4699 27.4704 37.6401 27.4955 36.6096L27.4964 36.573L27.4964 36.5728M25.6112 38.4965L27.4964 36.5728M27.4964 36.5728C27.605 32.0338 25.2182 28.0758 21.5005 26.2053C20.5972 25.7507 20.0536 24.6859 20.2262 23.698M27.4964 36.5728L20.2262 23.698M20.2262 23.698C20.3378 23.0586 20.3949 22.4056 20.3949 21.7441M20.2262 23.698L20.3949 21.7441M20.3949 21.7441C20.3949 18.668 19.1698 15.777 16.9505 13.6085L20.3949 21.7441Z" fill="white" stroke="black"/>
<path d="M34.54 33V22.02H31.38V18.8H41.22V22.02H38.06V33H34.54ZM42.4855 33V22.6H45.9455V25.44C46.2855 23.72 47.2855 22.4 49.1255 22.4C49.3655 22.4 49.6255 22.42 49.9055 22.5V25.8C49.6455 25.74 49.4255 25.72 49.1455 25.72C47.0655 25.72 45.9455 27.08 45.9455 28.96V33H42.4855ZM51.1573 33V22.6H54.6173V33H51.1573ZM51.1573 21.78V18.8H54.6173V21.78H51.1573ZM56.3722 33V22.6H59.8322V23.82C60.4322 22.98 61.4122 22.4 62.7922 22.4C64.8922 22.4 66.6522 23.7 66.6522 26.88V33H63.1922V27.48C63.1922 26.4 62.6722 25.46 61.4922 25.46C60.3322 25.46 59.8322 26.4 59.8322 27.48V33H56.3722ZM68.4034 33V22.6H71.8634V33H68.4034ZM68.4034 21.78V18.8H71.8634V21.78H68.4034ZM78.2783 33.12C76.1983 33.12 74.6983 32.12 74.6983 29.52V25.32H73.1183V22.6H74.6983V19.94H78.1583V22.6H80.3583V25.32H78.1583V29C78.1583 29.48 78.4383 30.08 79.4183 30.08C79.6583 30.08 80.0383 30.04 80.3983 29.92V32.54C79.9983 32.98 79.0583 33.12 78.2783 33.12ZM83.6238 36.8L85.3238 32.9L81.0238 22.6H84.5438L86.9838 28.96L89.4038 22.6H92.9238L87.0038 36.8H83.6238Z" fill="white"/>
<path d="M34.54 33H33.54V34H34.54V33ZM34.54 22.02H35.54V21.02H34.54V22.02ZM31.38 22.02H30.38V23.02H31.38V22.02ZM31.38 18.8V17.8H30.38V18.8H31.38ZM41.22 18.8H42.22V17.8H41.22V18.8ZM41.22 22.02V23.02H42.22V22.02H41.22ZM38.06 22.02V21.02H37.06V22.02H38.06ZM38.06 33V34H39.06V33H38.06ZM35.54 33V22.02H33.54V33H35.54ZM34.54 21.02H31.38V23.02H34.54V21.02ZM32.38 22.02V18.8H30.38V22.02H32.38ZM31.38 19.8H41.22V17.8H31.38V19.8ZM40.22 18.8V22.02H42.22V18.8H40.22ZM41.22 21.02H38.06V23.02H41.22V21.02ZM37.06 22.02V33H39.06V22.02H37.06ZM38.06 32H34.54V34H38.06V32ZM42.4855 33H41.4855V34H42.4855V33ZM42.4855 22.6V21.6H41.4855V22.6H42.4855ZM45.9455 22.6H46.9455V21.6H45.9455V22.6ZM45.9455 25.44H44.9455L46.9265 25.6339L45.9455 25.44ZM49.9055 22.5H50.9055V21.7457L50.1802 21.5385L49.9055 22.5ZM49.9055 25.8L49.6806 26.7744L50.9055 27.057V25.8H49.9055ZM45.9455 33V34H46.9455V33H45.9455ZM43.4855 33V22.6H41.4855V33H43.4855ZM42.4855 23.6H45.9455V21.6H42.4855V23.6ZM44.9455 22.6V25.44H46.9455V22.6H44.9455ZM46.9265 25.6339C47.0721 24.8971 47.3435 24.3335 47.6948 23.967C48.0239 23.6238 48.471 23.4 49.1255 23.4V21.4C47.9399 21.4 46.967 21.8362 46.2511 22.583C45.5575 23.3065 45.1588 24.2629 44.9645 25.2461L46.9265 25.6339ZM49.1255 23.4C49.3081 23.4 49.4688 23.4152 49.6307 23.4615L50.1802 21.5385C49.7822 21.4247 49.4229 21.4 49.1255 21.4V23.4ZM48.9055 22.5V25.8H50.9055V22.5H48.9055ZM50.1303 24.8256C49.7821 24.7452 49.4846 24.72 49.1455 24.72V26.72C49.3663 26.72 49.5089 26.7348 49.6806 26.7744L50.1303 24.8256ZM49.1455 24.72C47.8783 24.72 46.7966 25.141 46.0365 25.9504C45.2855 26.7501 44.9455 27.8252 44.9455 28.96H46.9455C46.9455 28.2148 47.1654 27.6699 47.4944 27.3196C47.8143 26.979 48.3326 26.72 49.1455 26.72V24.72ZM44.9455 28.96V33H46.9455V28.96H44.9455ZM45.9455 32H42.4855V34H45.9455V32ZM51.1573 33H50.1573V34H51.1573V33ZM51.1573 22.6V21.6H50.1573V22.6H51.1573ZM54.6173 22.6H55.6173V21.6H54.6173V22.6ZM54.6173 33V34H55.6173V33H54.6173ZM51.1573 21.78H50.1573V22.78H51.1573V21.78ZM51.1573 18.8V17.8H50.1573V18.8H51.1573ZM54.6173 18.8H55.6173V17.8H54.6173V18.8ZM54.6173 21.78V22.78H55.6173V21.78H54.6173ZM52.1573 33V22.6H50.1573V33H52.1573ZM51.1573 23.6H54.6173V21.6H51.1573V23.6ZM53.6173 22.6V33H55.6173V22.6H53.6173ZM54.6173 32H51.1573V34H54.6173V32ZM52.1573 21.78V18.8H50.1573V21.78H52.1573ZM51.1573 19.8H54.6173V17.8H51.1573V19.8ZM53.6173 18.8V21.78H55.6173V18.8H53.6173ZM54.6173 20.78H51.1573V22.78H54.6173V20.78ZM56.3722 33H55.3722V34H56.3722V33ZM56.3722 22.6V21.6H55.3722V22.6H56.3722ZM59.8322 22.6H60.8322V21.6H59.8322V22.6ZM59.8322 23.82H58.8322V26.9405L60.6459 24.4012L59.8322 23.82ZM66.6522 33V34H67.6522V33H66.6522ZM63.1922 33H62.1922V34H63.1922V33ZM59.8322 33V34H60.8322V33H59.8322ZM57.3722 33V22.6H55.3722V33H57.3722ZM56.3722 23.6H59.8322V21.6H56.3722V23.6ZM58.8322 22.6V23.82H60.8322V22.6H58.8322ZM60.6459 24.4012C61.0534 23.8308 61.7268 23.4 62.7922 23.4V21.4C61.0976 21.4 59.811 22.1292 59.0185 23.2388L60.6459 24.4012ZM62.7922 23.4C63.6374 23.4 64.3196 23.658 64.7927 24.1446C65.2657 24.631 65.6522 25.4722 65.6522 26.88H67.6522C67.6522 25.1078 67.1587 23.709 66.2267 22.7504C65.2947 21.7919 64.047 21.4 62.7922 21.4V23.4ZM65.6522 26.88V33H67.6522V26.88H65.6522ZM66.6522 32H63.1922V34H66.6522V32ZM64.1922 33V27.48H62.1922V33H64.1922ZM64.1922 27.48C64.1922 26.7972 64.0301 26.0589 63.5847 25.465C63.1106 24.8328 62.3838 24.46 61.4922 24.46V26.46C61.7806 26.46 61.9038 26.5572 61.9847 26.665C62.0942 26.8111 62.1922 27.0828 62.1922 27.48H64.1922ZM61.4922 24.46C60.6027 24.46 59.8834 24.8397 59.4194 25.4755C58.9858 26.0697 58.8322 26.8047 58.8322 27.48H60.8322C60.8322 27.0753 60.9285 26.8003 61.035 26.6545C61.111 26.5503 61.2217 26.46 61.4922 26.46V24.46ZM58.8322 27.48V33H60.8322V27.48H58.8322ZM59.8322 32H56.3722V34H59.8322V32ZM68.4034 33H67.4034V34H68.4034V33ZM68.4034 22.6V21.6H67.4034V22.6H68.4034ZM71.8634 22.6H72.8634V21.6H71.8634V22.6ZM71.8634 33V34H72.8634V33H71.8634ZM68.4034 21.78H67.4034V22.78H68.4034V21.78ZM68.4034 18.8V17.8H67.4034V18.8H68.4034ZM71.8634 18.8H72.8634V17.8H71.8634V18.8ZM71.8634 21.78V22.78H72.8634V21.78H71.8634ZM69.4034 33V22.6H67.4034V33H69.4034ZM68.4034 23.6H71.8634V21.6H68.4034V23.6ZM70.8634 22.6V33H72.8634V22.6H70.8634ZM71.8634 32H68.4034V34H71.8634V32ZM69.4034 21.78V18.8H67.4034V21.78H69.4034ZM68.4034 19.8H71.8634V17.8H68.4034V19.8ZM70.8634 18.8V21.78H72.8634V18.8H70.8634ZM71.8634 20.78H68.4034V22.78H71.8634V20.78ZM74.6983 25.32H75.6983V24.32H74.6983V25.32ZM73.1183 25.32H72.1183V26.32H73.1183V25.32ZM73.1183 22.6V21.6H72.1183V22.6H73.1183ZM74.6983 22.6V23.6H75.6983V22.6H74.6983ZM74.6983 19.94V18.94H73.6983V19.94H74.6983ZM78.1583 19.94H79.1583V18.94H78.1583V19.94ZM78.1583 22.6H77.1583V23.6H78.1583V22.6ZM80.3583 22.6H81.3583V21.6H80.3583V22.6ZM80.3583 25.32V26.32H81.3583V25.32H80.3583ZM78.1583 25.32V24.32H77.1583V25.32H78.1583ZM80.3983 29.92H81.3983V28.5326L80.0821 28.9713L80.3983 29.92ZM80.3983 32.54L81.1382 33.2127L81.3983 32.9266V32.54H80.3983ZM78.2783 32.12C77.3822 32.12 76.7658 31.9035 76.3795 31.5537C76.0115 31.2206 75.6983 30.6261 75.6983 29.52H73.6983C73.6983 31.0139 74.135 32.2194 75.0371 33.0363C75.9208 33.8365 77.0943 34.12 78.2783 34.12V32.12ZM75.6983 29.52V25.32H73.6983V29.52H75.6983ZM74.6983 24.32H73.1183V26.32H74.6983V24.32ZM74.1183 25.32V22.6H72.1183V25.32H74.1183ZM73.1183 23.6H74.6983V21.6H73.1183V23.6ZM75.6983 22.6V19.94H73.6983V22.6H75.6983ZM74.6983 20.94H78.1583V18.94H74.6983V20.94ZM77.1583 19.94V22.6H79.1583V19.94H77.1583ZM78.1583 23.6H80.3583V21.6H78.1583V23.6ZM79.3583 22.6V25.32H81.3583V22.6H79.3583ZM80.3583 24.32H78.1583V26.32H80.3583V24.32ZM77.1583 25.32V29H79.1583V25.32H77.1583ZM77.1583 29C77.1583 29.419 77.2794 29.9548 77.6836 30.3957C78.1065 30.857 78.7149 31.08 79.4183 31.08V29.08C79.2746 29.08 79.1994 29.058 79.1702 29.0466C79.1444 29.0366 79.1472 29.0325 79.1579 29.0443C79.1771 29.0652 79.1583 29.061 79.1583 29H77.1583ZM79.4183 31.08C79.7448 31.08 80.2344 31.0287 80.7145 30.8687L80.0821 28.9713C79.8422 29.0513 79.5718 29.08 79.4183 29.08V31.08ZM79.3983 29.92V32.54H81.3983V29.92H79.3983ZM79.6583 31.8673C79.6633 31.8618 79.5691 31.9469 79.2517 32.0216C78.9658 32.0889 78.617 32.12 78.2783 32.12V34.12C78.7196 34.12 79.2307 34.0811 79.7098 33.9684C80.1574 33.8631 80.7332 33.6582 81.1382 33.2127L79.6583 31.8673ZM83.6237 36.8L82.7071 36.4004L82.097 37.8H83.6237V36.8ZM85.3237 32.9L86.2404 33.2996L86.4109 32.9085L86.2466 32.5147L85.3237 32.9ZM81.0238 22.6V21.6H79.5226L80.1009 22.9853L81.0238 22.6ZM84.5438 22.6L85.4774 22.2418L85.2312 21.6H84.5438V22.6ZM86.9837 28.96L86.0501 29.3182L86.9876 31.7618L87.9184 29.3156L86.9837 28.96ZM89.4038 22.6V21.6H88.7143L88.4691 22.2444L89.4038 22.6ZM92.9238 22.6L93.8468 22.9848L94.4241 21.6H92.9238V22.6ZM87.0037 36.8V37.8H87.6703L87.9268 37.1848L87.0037 36.8ZM84.5404 37.1996L86.2404 33.2996L84.4071 32.5004L82.7071 36.4004L84.5404 37.1996ZM86.2466 32.5147L81.9466 22.2147L80.1009 22.9853L84.4009 33.2853L86.2466 32.5147ZM81.0238 23.6H84.5438V21.6H81.0238V23.6ZM83.6101 22.9582L86.0501 29.3182L87.9174 28.6018L85.4774 22.2418L83.6101 22.9582ZM87.9184 29.3156L90.3384 22.9556L88.4691 22.2444L86.0491 28.6044L87.9184 29.3156ZM89.4038 23.6H92.9238V21.6H89.4038V23.6ZM92.0008 22.2152L86.0807 36.4152L87.9268 37.1848L93.8468 22.9848L92.0008 22.2152ZM87.0037 35.8H83.6237V37.8H87.0037V35.8Z" fill="black"/>
</svg>
